<svg width="204" height="150" viewBox="0 0 204 150" fill="none" xmlns="http://www.w3.org/2000/svg">
<g clip-path="url(#clip0_3_28)">
<rect width="203.741" height="150" fill="white"/>
<path d="M43.9592 0H14.653L0 25.3797L14.653 50.7597H43.9592L58.6122 25.3797L43.9592 0Z" fill="#E6E6E6"/>
<path d="M16.2977 47.9109H42.3144L55.3227 25.3798L42.3144 2.84875H16.2977L3.28943 25.3798L16.2977 47.9109Z" fill="white"/>
<path d="M15.9836 19.8588C16.6464 19.8588 17.1838 19.3214 17.1838 18.6585C17.1838 17.9957 16.6464 17.4583 15.9836 17.4583C15.3207 17.4583 14.7833 17.9957 14.7833 18.6585C14.7833 19.3214 15.3207 19.8588 15.9836 19.8588Z" fill="#1E1D5B"/>
<path d="M15.9836 26.5801C16.6464 26.5801 17.1838 26.0427 17.1838 25.3798C17.1838 24.717 16.6464 24.1796 15.9836 24.1796C15.3207 24.1796 14.7833 24.717 14.7833 25.3798C14.7833 26.0427 15.3207 26.5801 15.9836 26.5801Z" fill="#1E1D5B"/>
<path d="M15.9836 33.3013C16.6464 33.3013 17.1838 32.764 17.1838 32.1011C17.1838 31.4382 16.6464 30.9009 15.9836 30.9009C15.3207 30.9009 14.7833 31.4382 14.7833 32.1011C14.7833 32.764 15.3207 33.3013 15.9836 33.3013Z" fill="#1E1D5B"/>
<path d="M43.8289 17.6984H21.0245V19.6187H43.8289V17.6984Z" fill="#1E1D5B"/>
<path d="M43.8289 24.4196H21.0245V26.34H43.8289V24.4196Z" fill="#1E1D5B"/>
<path d="M43.8289 31.1409H21.0245V33.0613H43.8289V31.1409Z" fill="#1E1D5B"/>
<path d="M189.088 0H159.782L145.129 25.3797L159.782 50.7597H189.088L203.741 25.3797L189.088 0Z" fill="#E6E6E6"/>
<path d="M161.427 47.9109H187.443L200.452 25.3798L187.443 2.84875H161.427L148.418 25.3798L161.427 47.9109Z" fill="white"/>
<path d="M161.113 19.8588C161.775 19.8588 162.313 19.3214 162.313 18.6585C162.313 17.9957 161.775 17.4583 161.113 17.4583C160.45 17.4583 159.912 17.9957 159.912 18.6585C159.912 19.3214 160.45 19.8588 161.113 19.8588Z" fill="#1E1D5B"/>
<path d="M161.113 26.5801C161.775 26.5801 162.313 26.0427 162.313 25.3798C162.313 24.717 161.775 24.1796 161.113 24.1796C160.45 24.1796 159.912 24.717 159.912 25.3798C159.912 26.0427 160.45 26.5801 161.113 26.5801Z" fill="#1E1D5B"/>
<path d="M161.113 33.3013C161.775 33.3013 162.313 32.764 162.313 32.1011C162.313 31.4382 161.775 30.9009 161.113 30.9009C160.45 30.9009 159.912 31.4382 159.912 32.1011C159.912 32.764 160.45 33.3013 161.113 33.3013Z" fill="#1E1D5B"/>
<path d="M188.958 17.6984H166.154V19.6187H188.958V17.6984Z" fill="#1E1D5B"/>
<path d="M188.958 24.4196H166.154V26.34H188.958V24.4196Z" fill="#1E1D5B"/>
<path d="M188.958 31.1409H166.154V33.0613H188.958V31.1409Z" fill="#1E1D5B"/>
<path d="M116.381 0.24649H87.3597L72.849 25.3798L87.3597 50.5132H116.381L130.892 25.3798L116.381 0.24649Z" fill="#E6E6E6"/>
<path d="M88.9886 47.6921H114.753L127.635 25.3798L114.753 3.06757H88.9886L76.1066 25.3798L88.9886 47.6921Z" fill="white"/>
<path d="M88.6775 19.9124C89.3339 19.9124 89.866 19.3802 89.866 18.7238C89.866 18.0674 89.3339 17.5352 88.6775 17.5352C88.021 17.5352 87.4889 18.0674 87.4889 18.7238C87.4889 19.3802 88.021 19.9124 88.6775 19.9124Z" fill="#6C63FF"/>
<path d="M88.6775 26.5684C89.3339 26.5684 89.866 26.0363 89.866 25.3798C89.866 24.7234 89.3339 24.1913 88.6775 24.1913C88.021 24.1913 87.4889 24.7234 87.4889 25.3798C87.4889 26.0363 88.021 26.5684 88.6775 26.5684Z" fill="#6C63FF"/>
<path d="M88.6775 33.2244C89.3339 33.2244 89.866 32.6923 89.866 32.0358C89.866 31.3794 89.3339 30.8473 88.6775 30.8473C88.021 30.8473 87.4889 31.3794 87.4889 32.0358C87.4889 32.6923 88.021 33.2244 88.6775 33.2244Z" fill="#6C63FF"/>
<path d="M116.252 17.7729H93.6694V19.6747H116.252V17.7729Z" fill="#6C63FF"/>
<path d="M116.252 24.429H93.6694V26.3307H116.252V24.429Z" fill="#6C63FF"/>
<path d="M116.252 31.085H93.6694V32.9867H116.252V31.085Z" fill="#6C63FF"/>
<path d="M126.612 147.092L123.794 147.092L122.453 136.219L126.613 136.22L126.612 147.092Z" fill="#9F616A"/>
<path d="M127.331 149.825L118.242 149.825V149.71C118.242 148.771 118.615 147.872 119.278 147.208C119.942 146.545 120.842 146.172 121.78 146.172L127.332 146.172L127.331 149.825Z" fill="#2F2E41"/>
<path d="M152.824 147.092L150.005 147.092L148.664 136.219L152.824 136.22L152.824 147.092Z" fill="#9F616A"/>
<path d="M153.543 149.825L144.454 149.825V149.71C144.454 148.771 144.827 147.872 145.49 147.208C146.153 146.545 147.053 146.172 147.991 146.172L153.543 146.172L153.543 149.825Z" fill="#2F2E41"/>
<path d="M125.489 91.9158C125.489 91.9158 123.123 98.338 123.461 101.042C123.799 103.746 121.095 122.675 121.433 124.365C121.771 126.055 121.095 134.505 121.433 135.857C121.771 137.209 120.484 138.824 121.16 140.176C121.836 141.528 122.785 144.307 122.785 144.307L127.179 143.969L127.855 140.251C127.855 140.251 129.883 139.913 129.545 137.885C129.207 135.857 131.235 122.337 131.235 122.337L136.981 103.408L145.093 120.647C145.093 120.647 145.431 132.815 146.445 134.167C147.46 135.519 145.431 139.237 146.445 140.589C147.46 141.941 148.474 144.307 148.474 144.307H153.544V141.603C153.544 141.603 156.586 139.913 153.544 134.843L151.488 104.395L149.46 90.5363L125.489 91.9158Z" fill="#2F2E41"/>
<path d="M138.089 49.4143C141.576 49.4143 144.403 46.5878 144.403 43.1011C144.403 39.6144 141.576 36.7879 138.089 36.7879C134.603 36.7879 131.776 39.6144 131.776 43.1011C131.776 46.5878 134.603 49.4143 138.089 49.4143Z" fill="#A0616A"/>
<path d="M132.717 42.6656C133.162 43.8037 133.608 44.9419 134.053 46.0801C134.601 47.4793 135.228 48.9763 136.512 49.7572C138.097 50.7213 140.214 50.2512 141.747 49.2068C143.126 48.2675 144.184 46.9286 144.78 45.3701C145.376 43.8116 145.481 42.1081 145.08 40.4883C144.68 38.8686 143.793 37.4102 142.54 36.309C141.286 35.2079 139.725 34.5168 138.067 34.3285L138.004 35.4713L136.602 34.2958C136.498 34.4738 136.355 34.6259 136.184 34.7408C136.013 34.8557 135.819 34.9304 135.615 34.9593C135.411 34.9881 135.203 34.9704 135.007 34.9074C134.811 34.8444 134.631 34.7377 134.482 34.5955C134.851 35.3591 134.425 36.2905 133.812 36.8754C133.057 37.594 130.9 38.4576 130.989 39.7423C131.049 40.5995 132.369 41.7772 132.717 42.6656Z" fill="#2F2E41"/>
<path d="M155.467 101.255C155.685 100.93 155.829 100.562 155.889 100.175C155.948 99.7892 155.923 99.3946 155.814 99.0193C155.704 98.6441 155.514 98.2974 155.257 98.0036C154.999 97.7098 154.68 97.4761 154.322 97.319L154.448 91.2116L150.755 90.2298L150.698 98.857C150.474 99.4756 150.485 100.155 150.728 100.766C150.971 101.378 151.43 101.879 152.018 102.174C152.606 102.47 153.282 102.539 153.917 102.37C154.553 102.2 155.105 101.804 155.467 101.255Z" fill="#9F616A"/>
<path d="M142.779 53.3161C142.779 53.3161 137.887 50.87 133.266 52.5008C128.646 54.1315 126.2 56.034 126.2 56.034L129.19 71.7979L125.113 92.9975C125.113 92.9975 146.041 91.3668 147.943 92.9975C149.846 94.6283 149.846 91.095 149.846 91.095L148.215 70.9825L151.205 58.2083L142.779 53.3161Z" fill="#3F3D56"/>
<path d="M122.131 101.616C122.431 101.366 122.672 101.053 122.838 100.699C123.004 100.345 123.09 99.9589 123.09 99.5681C123.091 99.1773 123.006 98.7911 122.841 98.4368C122.676 98.0825 122.436 97.7686 122.136 97.5173L123.972 91.691L120.704 89.7119L118.227 97.9761C117.838 98.5069 117.657 99.1618 117.719 99.8169C117.781 100.472 118.081 101.082 118.562 101.53C119.043 101.979 119.672 102.236 120.33 102.251C120.988 102.267 121.628 102.041 122.131 101.616Z" fill="#9F616A"/>
<path d="M128.102 56.034H126.2C126.2 56.034 123.21 57.9366 123.21 60.6545C123.21 63.3724 118.861 95.1719 118.861 95.1719L123.482 95.9872L127.559 73.7004L130.548 67.721L128.102 56.034Z" fill="#3F3D56"/>
<path d="M146.041 58.2084H151.205C151.205 58.2084 152.835 59.8391 153.651 63.6442C154.466 67.4493 155.281 82.3977 155.281 82.3977L154.738 95.9872H150.661L150.117 78.3209L147.399 66.9057L146.041 58.2084Z" fill="#3F3D56"/>
<path d="M185.054 150H97.4522C97.3912 150 97.3328 149.976 97.2896 149.933C97.2465 149.89 97.2223 149.831 97.2223 149.77C97.2223 149.709 97.2465 149.651 97.2896 149.607C97.3328 149.564 97.3912 149.54 97.4522 149.54H185.054C185.115 149.54 185.174 149.564 185.217 149.607C185.26 149.651 185.284 149.709 185.284 149.77C185.284 149.831 185.26 149.89 185.217 149.933C185.174 149.976 185.115 150 185.054 150Z" fill="#CBCBCB"/>
</g>
<defs>
<clipPath id="clip0_3_28">
<rect width="203.741" height="150" fill="white"/>
</clipPath>
</defs>
</svg>
