<svg width="110" height="100" viewBox="0 0 110 100" fill="none" xmlns="http://www.w3.org/2000/svg">
<g clip-path="url(#clip0_3_70)">
<path d="M77.4788 91.709H27.9062C26.7289 91.7077 25.6002 91.2393 24.7679 90.4067C23.9355 89.5741 23.4676 88.4452 23.4667 87.2679V68.2126C23.364 68.3297 23.2566 68.4451 23.146 68.5573V87.2679C23.1471 88.5302 23.649 89.7404 24.5414 90.6332C25.4338 91.5259 26.6439 92.0281 27.9062 92.0297H77.6183C77.5701 91.9239 77.5237 91.8165 77.4788 91.709ZM23.4667 21.2759C23.4676 20.0985 23.9355 18.9697 24.7679 18.1371C25.6002 17.3044 26.7289 16.836 27.9062 16.8347H44.4235C44.393 16.7273 44.3641 16.6215 44.3369 16.514H27.9062C26.6439 16.5156 25.4338 17.0179 24.5414 17.9106C23.649 18.8033 23.1471 20.0136 23.146 21.2759V50.4881C23.2566 50.6003 23.3625 50.7157 23.4667 50.8328V21.2759ZM90.0295 25.0212L79.6721 16.8171C79.4249 16.621 79.1187 16.5143 78.8032 16.514H69.5857C69.56 16.6215 69.5312 16.7289 69.5008 16.8347H78.8032C79.0462 16.8353 79.2821 16.9171 79.4733 17.0672L89.8307 25.2729C89.929 25.3504 90.0084 25.4493 90.0628 25.5621C90.1173 25.6749 90.1453 25.7986 90.1449 25.9238V73.6751C90.2523 73.6783 90.3598 73.6863 90.4655 73.6943V25.9238C90.4661 25.7502 90.4272 25.5786 90.3516 25.4222C90.2761 25.2658 90.1659 25.1287 90.0295 25.0212Z" fill="#3F3D56"/>
<path d="M89.8926 25.4447H81.5353C81.2332 25.4447 80.9341 25.3852 80.655 25.2696C80.3759 25.154 80.1223 24.9846 79.9086 24.771C79.695 24.5573 79.5256 24.3037 79.41 24.0246C79.2944 23.7455 79.2349 23.4464 79.2349 23.1443V16.9717C79.2349 16.9447 79.2425 16.9182 79.2568 16.8953C79.2712 16.8724 79.2917 16.854 79.3161 16.8423C79.3404 16.8305 79.3675 16.8258 79.3944 16.8288C79.4213 16.8318 79.4467 16.8422 79.4679 16.859L89.9819 25.1883C90.0053 25.2068 90.0223 25.2322 90.0307 25.2608C90.039 25.2895 90.0382 25.32 90.0284 25.3482C90.0186 25.3764 90.0002 25.4008 89.9759 25.4181C89.9516 25.4354 89.9225 25.4447 89.8926 25.4447Z" fill="#1E1D5B"/>
<path d="M89.8926 25.6051H81.5353C80.8829 25.6043 80.2574 25.3448 79.7961 24.8835C79.3348 24.4222 79.0753 23.7967 79.0745 23.1443V16.9717C79.0745 16.9146 79.0906 16.8586 79.121 16.8101C79.1514 16.7617 79.1948 16.7228 79.2462 16.6979C79.2977 16.673 79.3551 16.6631 79.4119 16.6694C79.4687 16.6756 79.5226 16.6978 79.5675 16.7333L90.0814 25.0626C90.1309 25.1018 90.167 25.1554 90.1846 25.2161C90.2023 25.2767 90.2006 25.3413 90.1798 25.401C90.1591 25.4606 90.1203 25.5123 90.0688 25.5489C90.0173 25.5854 89.9557 25.6051 89.8926 25.6051ZM79.3952 17.0059V23.1443C79.3958 23.7117 79.6215 24.2556 80.0227 24.6569C80.4239 25.0581 80.9679 25.2838 81.5353 25.2844H89.845L79.3952 17.0059Z" fill="#3F3D56"/>
<path d="M73.303 36.0842H48.7172C48.4122 36.0842 48.1196 35.963 47.9039 35.7473C47.6882 35.5316 47.567 35.239 47.567 34.934C47.567 34.6289 47.6882 34.3363 47.9039 34.1206C48.1196 33.9049 48.4122 33.7838 48.7172 33.7838H73.303C73.608 33.7838 73.9006 33.9049 74.1163 34.1206C74.332 34.3363 74.4532 34.6289 74.4532 34.934C74.4532 35.239 74.332 35.5316 74.1163 35.7473C73.9006 35.963 73.608 36.0842 73.303 36.0842Z" fill="#1E1D5B" fill-opacity="0.5"/>
<path d="M78.0476 39.9661H48.7172C48.4122 39.9661 48.1196 39.845 47.9039 39.6292C47.6882 39.4135 47.567 39.121 47.567 38.8159C47.567 38.5109 47.6882 38.2183 47.9039 38.0026C48.1196 37.7869 48.4122 37.6657 48.7172 37.6657H78.0476C78.3526 37.6657 78.6452 37.7869 78.8609 38.0026C79.0766 38.2183 79.1978 38.5109 79.1978 38.8159C79.1978 39.121 79.0766 39.4135 78.8609 39.6292C78.6452 39.845 78.3527 39.9661 78.0476 39.9661Z" fill="#1E1D5B" fill-opacity="0.5"/>
<path d="M73.303 53.4811H48.7172C48.4122 53.4811 48.1196 53.3599 47.9039 53.1442C47.6882 52.9285 47.567 52.6359 47.567 52.3309C47.567 52.0258 47.6882 51.7333 47.9039 51.5176C48.1196 51.3019 48.4122 51.1807 48.7172 51.1807H73.303C73.608 51.1807 73.9006 51.3019 74.1163 51.5176C74.332 51.7333 74.4532 52.0258 74.4532 52.3309C74.4532 52.6359 74.332 52.9285 74.1163 53.1442C73.9006 53.3599 73.608 53.4811 73.303 53.4811Z" fill="#1E1D5B" fill-opacity="0.5"/>
<path d="M78.0476 57.3631H48.7172C48.4122 57.3631 48.1196 57.2419 47.9039 57.0262C47.6882 56.8105 47.567 56.5179 47.567 56.2129C47.567 55.9078 47.6882 55.6152 47.9039 55.3995C48.1196 55.1838 48.4122 55.0626 48.7172 55.0626H78.0476C78.3526 55.0626 78.6452 55.1838 78.8609 55.3995C79.0766 55.6152 79.1978 55.9078 79.1978 56.2129C79.1978 56.5179 79.0766 56.8105 78.8609 57.0262C78.6452 57.2419 78.3527 57.3631 78.0476 57.3631Z" fill="#1E1D5B" fill-opacity="0.5"/>
<path d="M73.303 70.878H48.7172C48.5662 70.878 48.4166 70.8483 48.2771 70.7905C48.1375 70.7327 48.0107 70.648 47.9039 70.5412C47.7971 70.4343 47.7124 70.3075 47.6546 70.168C47.5968 70.0284 47.567 69.8789 47.567 69.7278C47.567 69.5768 47.5968 69.4272 47.6546 69.2877C47.7124 69.1481 47.7971 69.0213 47.9039 68.9145C48.0107 68.8077 48.1375 68.723 48.2771 68.6652C48.4166 68.6074 48.5662 68.5776 48.7172 68.5776H73.303C73.608 68.5776 73.9006 68.6988 74.1163 68.9145C74.332 69.1302 74.4532 69.4228 74.4532 69.7278C74.4532 70.0329 74.332 70.3254 74.1163 70.5412C73.9006 70.7569 73.608 70.878 73.303 70.878Z" fill="#1E1D5B" fill-opacity="0.5"/>
<path d="M78.0476 74.76H48.7172C48.5662 74.76 48.4166 74.7302 48.2771 74.6724C48.1375 74.6146 48.0107 74.5299 47.9039 74.4231C47.7971 74.3163 47.7124 74.1895 47.6546 74.05C47.5968 73.9104 47.567 73.7608 47.567 73.6098C47.567 73.4587 47.5968 73.3092 47.6546 73.1696C47.7124 73.0301 47.7971 72.9033 47.9039 72.7965C48.0107 72.6897 48.1375 72.6049 48.2771 72.5471C48.4166 72.4893 48.5662 72.4596 48.7172 72.4596H78.0476C78.1986 72.4596 78.3482 72.4893 78.4878 72.5471C78.6273 72.6049 78.7541 72.6897 78.8609 72.7965C78.9677 72.9033 79.0524 73.0301 79.1103 73.1696C79.1681 73.3092 79.1978 73.4587 79.1978 73.6098C79.1978 73.7608 79.1681 73.9104 79.1103 74.05C79.0524 74.1895 78.9677 74.3163 78.8609 74.4231C78.7541 74.5299 78.6273 74.6146 78.4878 74.6724C78.3482 74.7302 78.1987 74.76 78.0476 74.76Z" fill="#1E1D5B" fill-opacity="0.5"/>
<path d="M38.4791 40.9403C40.7243 40.9403 42.5444 39.1202 42.5444 36.8749C42.5444 34.6297 40.7243 32.8096 38.4791 32.8096C36.2338 32.8096 34.4137 34.6297 34.4137 36.8749C34.4137 39.1202 36.2338 40.9403 38.4791 40.9403Z" fill="#6C63FF"/>
<path d="M38.0762 38.4258C37.9848 38.4259 37.8958 38.3963 37.8226 38.3415L37.818 38.3381L36.8626 37.6072C36.8183 37.5733 36.7811 37.531 36.7531 37.4827C36.7251 37.4344 36.7069 37.3811 36.6996 37.3258C36.6922 37.2704 36.6958 37.2142 36.7102 37.1603C36.7246 37.1064 36.7495 37.0558 36.7835 37.0115C36.8174 36.9672 36.8598 36.9301 36.9081 36.9022C36.9565 36.8742 37.0098 36.8561 37.0652 36.8489C37.1205 36.8416 37.1767 36.8453 37.2306 36.8598C37.2845 36.8743 37.335 36.8993 37.3793 36.9333L37.9981 37.4078L39.4605 35.5C39.4944 35.4558 39.5367 35.4187 39.5849 35.3908C39.6332 35.3629 39.6865 35.3448 39.7417 35.3375C39.797 35.3302 39.8531 35.3339 39.907 35.3483C39.9608 35.3627 40.0113 35.3875 40.0555 35.4214L40.0466 35.4341L40.0559 35.4215C40.1451 35.4901 40.2035 35.5913 40.2182 35.7029C40.2329 35.8145 40.2028 35.9273 40.1344 36.0167L38.4143 38.2597C38.3745 38.3114 38.3234 38.3532 38.2648 38.3819C38.2062 38.4106 38.1418 38.4254 38.0766 38.4252L38.0762 38.4258Z" fill="white"/>
<path d="M38.4791 58.3372C40.7243 58.3372 42.5444 56.5171 42.5444 54.2719C42.5444 52.0266 40.7243 50.2065 38.4791 50.2065C36.2338 50.2065 34.4137 52.0266 34.4137 54.2719C34.4137 56.5171 36.2338 58.3372 38.4791 58.3372Z" fill="#1E1D5B"/>
<path d="M38.0762 55.8227C37.9848 55.8228 37.8957 55.7933 37.8226 55.7384L37.818 55.735L36.8626 55.0041C36.7732 54.9356 36.7148 54.8344 36.7 54.7228C36.6853 54.6111 36.7155 54.4982 36.784 54.4088C36.8525 54.3195 36.9537 54.261 37.0653 54.2462C37.177 54.2315 37.2899 54.2617 37.3793 54.3302L37.9981 54.8048L39.4604 52.897C39.4944 52.8527 39.5366 52.8156 39.5849 52.7877C39.6332 52.7598 39.6864 52.7417 39.7417 52.7344C39.7969 52.7271 39.8531 52.7308 39.9069 52.7452C39.9608 52.7596 40.0112 52.7845 40.0555 52.8184L40.0465 52.8311L40.0558 52.8185C40.1451 52.8871 40.2035 52.9882 40.2182 53.0998C40.2329 53.2114 40.2027 53.3242 40.1343 53.4136L38.4143 55.6566C38.3745 55.7083 38.3233 55.7501 38.2648 55.7788C38.2062 55.8075 38.1418 55.8224 38.0766 55.8222L38.0762 55.8227Z" fill="white"/>
<path d="M38.4791 75.7342C40.7243 75.7342 42.5444 73.914 42.5444 71.6688C42.5444 69.4236 40.7243 67.6035 38.4791 67.6035C36.2338 67.6035 34.4137 69.4236 34.4137 71.6688C34.4137 73.914 36.2338 75.7342 38.4791 75.7342Z" fill="#1E1D5B"/>
<path d="M38.0762 73.2196C37.9848 73.2198 37.8958 73.1902 37.8226 73.1353L37.818 73.1319L36.8626 72.4011C36.8183 72.3672 36.7811 72.3249 36.7531 72.2766C36.7251 72.2283 36.7069 72.175 36.6996 72.1196C36.6922 72.0643 36.6958 72.0081 36.7102 71.9542C36.7246 71.9002 36.7495 71.8497 36.7835 71.8054C36.8174 71.7611 36.8598 71.7239 36.9081 71.696C36.9565 71.6681 37.0098 71.65 37.0652 71.6427C37.1205 71.6355 37.1767 71.6392 37.2306 71.6537C37.2845 71.6682 37.335 71.6931 37.3793 71.7272L37.9981 72.2017L39.4605 70.2939C39.4944 70.2497 39.5367 70.2126 39.5849 70.1847C39.6332 70.1568 39.6865 70.1387 39.7417 70.1314C39.797 70.1241 39.8531 70.1277 39.907 70.1421C39.9608 70.1565 40.0113 70.1814 40.0555 70.2153L40.0466 70.228L40.0559 70.2154C40.1451 70.284 40.2035 70.3852 40.2182 70.4967C40.2329 70.6083 40.2028 70.7212 40.1344 70.8106L38.4143 73.0535C38.3745 73.1052 38.3234 73.147 38.2648 73.1758C38.2062 73.2045 38.1418 73.2193 38.0766 73.2191L38.0762 73.2196Z" fill="white"/>
<path d="M95.6373 98.4949C95.4078 98.6148 95.1745 98.7283 94.9372 98.8353C94.7211 98.933 94.5016 99.0247 94.2787 99.1106C94.1972 99.1417 94.1144 99.1727 94.0315 99.2038C93.3763 99.4415 92.7033 99.627 92.0188 99.7588C91.6799 99.8254 91.3366 99.8777 90.9888 99.9157C90.7017 99.9482 90.4117 99.9714 90.1187 99.9852C89.91 99.9956 89.7013 100 89.4911 100C88.6589 100 87.8285 99.9226 87.0108 99.7677C86.7977 99.7292 86.5891 99.6833 86.3804 99.633C85.371 99.3911 84.3939 99.0304 83.4694 98.5586C83.3865 98.5171 83.3036 98.4727 83.2207 98.4298C83.0979 98.3647 82.9781 98.2966 82.8582 98.2256C82.9159 98.1457 82.9781 98.0672 83.0417 97.9903C83.7342 97.1321 84.5997 96.4295 85.582 95.9282C86.5642 95.4269 87.641 95.1383 88.7423 95.081C89.8435 95.0238 90.9445 95.1992 91.9734 95.5959C93.0023 95.9927 93.936 96.6018 94.7138 97.3835C94.9837 97.6544 95.234 97.9442 95.4626 98.2508C95.5232 98.3307 95.581 98.4121 95.6373 98.4949Z" fill="#6C63FF"/>
<path d="M89.7865 91.9941C93.3754 91.9941 96.2848 89.0848 96.2848 85.4959C96.2848 81.907 93.3754 78.9976 89.7865 78.9976C86.1976 78.9976 83.2883 81.907 83.2883 85.4959C83.2883 89.0848 86.1976 91.9941 89.7865 91.9941Z" fill="#2F2E41"/>
<path d="M91.5148 92.0033C93.8586 90.7221 94.72 87.7834 93.4388 85.4396C92.1576 83.0958 89.2189 82.2345 86.8751 83.5157C84.5314 84.7969 83.67 87.7356 84.9512 90.0793C86.2324 92.4231 89.1711 93.2845 91.5148 92.0033Z" fill="#A0616A"/>
<path d="M94.277 84.7174C93.1718 85.4791 91.86 85.8845 90.5177 85.8791C90.9965 86.2111 91.5416 86.4354 92.1154 86.5364C90.3308 86.9193 88.4863 86.9296 86.6975 86.5669C86.2998 86.5031 85.9162 86.3714 85.5633 86.1773C85.3874 86.0791 85.2342 85.945 85.1136 85.7837C84.993 85.6224 84.9077 85.4375 84.8632 85.2411C84.7443 84.562 85.2735 83.945 85.8233 83.5292C86.6653 82.9024 87.636 82.4704 88.6654 82.2648C89.6947 82.0591 90.7569 82.0847 91.7751 82.3399C92.4399 82.5118 93.1059 82.8021 93.5378 83.3361C93.9696 83.87 94.0975 84.6931 93.6861 85.2429L94.277 84.7174Z" fill="#2F2E41"/>
<path d="M90.4655 73.3961C90.3597 73.3881 90.2523 73.3817 90.1449 73.3769C89.9284 73.3656 89.7104 73.3608 89.4907 73.3608C87.3066 73.3609 85.156 73.898 83.2284 74.925C81.3008 75.952 79.6554 77.4372 78.437 79.2499C77.2186 81.0626 76.4647 83.1471 76.2417 85.3198C76.0187 87.4925 76.3334 89.6866 77.1581 91.709C77.2014 91.8165 77.2463 91.9239 77.2944 92.0297C78.3962 94.5258 80.233 96.6265 82.5596 98.0517L82.6446 98.1014C82.7167 98.1447 82.7873 98.1864 82.8579 98.2249C82.9781 98.297 83.0984 98.3644 83.2202 98.4301C83.3036 98.4734 83.3869 98.5167 83.4687 98.5584C84.3933 99.0304 85.3706 99.391 86.3803 99.6326C86.5887 99.6839 86.7972 99.7288 87.0104 99.7673C87.8281 99.9222 88.6585 100 89.4907 99.9997C89.7007 99.9997 89.9092 99.9949 90.1193 99.9853C90.411 99.9725 90.7012 99.9484 90.9882 99.9164C91.3361 99.8779 91.6798 99.8255 92.0191 99.7592C92.7033 99.6271 93.3761 99.4416 94.0313 99.2045C94.1147 99.1724 94.198 99.142 94.2782 99.1099C94.5027 99.0249 94.7207 98.9335 94.9371 98.8357C95.1744 98.7283 95.408 98.6145 95.6378 98.4942C97.9413 97.2873 99.8454 95.4383 101.119 93.1713C101.125 93.1592 101.132 93.1474 101.139 93.136C102.224 91.1809 102.799 88.9842 102.811 86.7484C102.823 84.5125 102.272 82.3096 101.209 80.3428C100.145 78.3761 98.6035 76.7087 96.726 75.4947C94.8485 74.2806 92.6954 73.5589 90.4655 73.3961ZM102.285 89.1245C102.028 90.4694 101.558 91.765 100.895 92.9628C100.884 92.9837 100.873 93.0045 100.861 93.0238C99.6134 95.2577 97.7361 97.0754 95.463 98.2505C95.2353 98.3692 95.005 98.4804 94.772 98.584C94.578 98.6706 94.3792 98.754 94.1788 98.8309C94.0954 98.863 94.0088 98.8967 93.9238 98.9255C93.3576 99.1323 92.7773 99.2984 92.1875 99.4226C91.7501 99.516 91.308 99.5856 90.8631 99.631C90.589 99.6614 90.3116 99.6823 90.031 99.6919C89.8514 99.6999 89.6719 99.7047 89.4907 99.7047C88.6854 99.7051 87.8818 99.6299 87.0906 99.4803C86.609 99.392 86.133 99.2753 85.6652 99.1308C84.9525 98.9111 84.26 98.6306 83.5953 98.2922C83.5184 98.2521 83.4414 98.2121 83.3661 98.1704C83.2571 98.1127 83.148 98.0533 83.0422 97.9908C82.9621 97.9459 82.8819 97.8978 82.8033 97.8513C82.7568 97.8241 82.712 97.7968 82.6655 97.7679C80.4506 96.3988 78.6935 94.4012 77.6182 92.0297C77.5701 91.9239 77.5237 91.8165 77.4787 91.7091C76.6502 89.7298 76.3236 87.5765 76.5278 85.4405C76.7321 83.3046 77.461 81.2522 78.6497 79.4659C79.8383 77.6796 81.45 76.2146 83.3413 75.2013C85.2326 74.1879 87.345 73.6576 89.4907 73.6574C89.7104 73.6574 89.9284 73.6623 90.1448 73.6751C90.2523 73.6783 90.3597 73.6863 90.4655 73.6943C92.295 73.833 94.0746 74.3563 95.6879 75.2301C97.3012 76.1039 98.7119 77.3085 99.8276 78.765C100.943 80.2215 101.739 81.8972 102.162 83.6824C102.586 85.4676 102.628 87.3221 102.285 89.1245Z" fill="#3F3D56"/>
<path d="M86.4957 79.0873C86.4258 78.3521 85.5251 77.8994 84.8208 78.1215C84.1164 78.3436 83.654 79.0528 83.5142 79.778C83.447 80.0834 83.4407 80.3991 83.4956 80.7069C83.5506 81.0148 83.6658 81.3088 83.8347 81.572C84.1907 82.0844 84.845 82.4041 85.4552 82.2741C86.1518 82.1256 86.6344 81.4454 86.7725 80.7467C86.9106 80.0479 86.7735 79.3275 86.6366 78.6286L86.4957 79.0873Z" fill="#2F2E41"/>
<path d="M96.4085 80.1376C96.3386 79.4024 95.4379 78.9497 94.7336 79.1718C94.0292 79.3939 93.5668 80.1031 93.427 80.8283C93.3598 81.1337 93.3534 81.4494 93.4084 81.7572C93.4634 82.0651 93.5786 82.3591 93.7475 82.6223C94.1035 83.1347 94.7577 83.4545 95.368 83.3244C96.0646 83.1759 96.5472 82.4957 96.6853 81.797C96.8234 81.0982 96.6863 80.3778 96.5493 79.6789L96.4085 80.1376Z" fill="#2F2E41"/>
<path d="M64.0655 24.4097C62.0038 25.7299 59.6151 26.4498 57.1672 26.4887C54.7192 26.5277 52.3088 25.8841 50.2061 24.6302C50.576 23.9416 51.0447 23.3109 51.5973 22.7581C52.4499 21.9014 53.4875 21.2516 54.6305 20.8585C55.7734 20.4655 56.9912 20.3396 58.1904 20.4907C59.3895 20.6417 60.5381 21.0657 61.5479 21.7299C62.5576 22.3941 63.4017 23.281 64.0152 24.3223C64.0314 24.3505 64.0492 24.3801 64.0655 24.4097Z" fill="#6C63FF"/>
<path d="M56.5572 17.3327C60.1699 17.3327 63.0986 14.404 63.0986 10.7912C63.0986 7.17849 60.1699 4.24979 56.5572 4.24979C52.9445 4.24979 50.0157 7.17849 50.0157 10.7912C50.0157 14.404 52.9445 17.3327 56.5572 17.3327Z" fill="#2F2E41"/>
<path d="M60.7833 15.4052C62.0731 13.0458 61.206 10.0876 58.8466 8.79791C56.4873 7.50816 53.5291 8.37526 52.2393 10.7346C50.9496 13.094 51.8167 16.0521 54.176 17.3419C56.5354 18.6316 59.4936 17.7645 60.7833 15.4052Z" fill="#FFB8B8"/>
<path d="M52.0369 10.0075C53.1494 10.7744 54.4699 11.1824 55.8211 11.177C55.3391 11.5113 54.7904 11.737 54.2128 11.8387C56.0093 12.2241 57.866 12.2345 59.6668 11.8694C60.067 11.8052 60.4533 11.6725 60.8085 11.4772C60.9855 11.3784 61.1397 11.2434 61.2612 11.081C61.3826 10.9186 61.4685 10.7325 61.5132 10.5347C61.6329 9.85115 61.1002 9.2301 60.5467 8.81155C59.6992 8.18049 58.722 7.74571 57.6858 7.53865C56.6496 7.33159 55.5804 7.35744 54.5554 7.61433C53.8862 7.78733 53.2157 8.07961 52.781 8.61708C52.3463 9.15456 52.2175 9.98315 52.6317 10.5366L52.0369 10.0075Z" fill="#2F2E41"/>
<path d="M56.9581 0C53.4268 0.0039263 50.0413 1.40835 47.5441 3.90518C45.047 6.40202 43.6422 9.78738 43.6378 13.3187C43.6384 14.3959 43.7708 15.469 44.0322 16.514C44.0595 16.6215 44.0867 16.7289 44.1156 16.8347C44.8839 19.6516 46.5575 22.1376 48.8783 23.9093C51.1991 25.6811 54.0383 26.6402 56.9581 26.6389C59.8785 26.6388 62.7179 25.6793 65.0397 23.9079C67.3615 22.1365 69.0371 19.6513 69.8086 16.8347C69.8375 16.7273 69.8647 16.6215 69.8903 16.514C70.3733 14.552 70.4039 12.5059 69.9798 10.5303C69.5556 8.55473 68.6879 6.70145 67.4421 5.1106C66.1963 3.51976 64.6051 2.233 62.7888 1.34761C60.9725 0.462234 58.9787 0.00141356 56.9581 0ZM69.5857 16.514C69.56 16.6215 69.5312 16.7289 69.5007 16.8347C68.9598 18.7613 67.9824 20.5374 66.6443 22.0253C65.3062 23.5131 63.6434 24.6729 61.7848 25.4145C59.9262 26.1561 57.9218 26.4596 55.927 26.3016C53.9322 26.1436 52.0006 25.5283 50.2819 24.5033C47.4255 22.7845 45.3308 20.0425 44.4234 16.8347C44.393 16.7273 44.3641 16.6215 44.3368 16.514C44.0697 15.4699 43.9345 14.3964 43.9345 13.3187C43.9365 11.4738 44.3305 9.65044 45.0904 7.96934C45.8503 6.28824 46.9587 4.78778 48.3422 3.56733C49.7256 2.34688 51.3526 1.43431 53.1154 0.89005C54.8781 0.345793 56.7364 0.182276 58.5671 0.410328C60.3978 0.63838 62.1592 1.2528 63.7345 2.21288C65.3099 3.17297 66.6633 4.45681 67.705 5.97937C68.7468 7.50193 69.4532 9.22847 69.7774 11.0446C70.1016 12.8608 70.0363 14.7251 69.5857 16.514Z" fill="#3F3D56"/>
<path d="M20.8773 70.6063C18.8157 71.9266 16.4271 72.6467 13.9793 72.6858C11.5314 72.7248 9.12109 72.0814 7.01837 70.8276C7.04076 70.7843 7.06479 70.741 7.09047 70.6993C7.76495 69.4835 8.7479 68.4669 9.94032 67.7519C11.1327 67.0368 12.4925 66.6486 13.8827 66.6264C15.2729 66.6041 16.6444 66.9485 17.8591 67.625C19.0739 68.3015 20.0889 69.2861 20.8019 70.4797C20.8116 70.4925 20.8196 70.5069 20.8276 70.5198C20.8437 70.547 20.8613 70.5775 20.8773 70.6063Z" fill="#6C63FF"/>
<path d="M19.9105 56.9879C19.9105 58.2817 19.5268 59.5464 18.808 60.6221C18.0892 61.6978 17.0676 62.5363 15.8723 63.0314C14.677 63.5265 13.3618 63.656 12.0928 63.4036C10.8239 63.1512 9.65835 62.5282 8.74352 61.6133C7.82868 60.6985 7.20567 59.5329 6.95327 58.264C6.70087 56.9951 6.83041 55.6798 7.32552 54.4845C7.82063 53.2892 8.65906 52.2676 9.7348 51.5488C10.8105 50.83 12.0753 50.4464 13.369 50.4464C14.2292 50.4423 15.0817 50.6087 15.8772 50.936C16.6727 51.2632 17.3955 51.7449 18.0037 52.3532C18.612 52.9614 19.0937 53.6842 19.4209 54.4797C19.7482 55.2752 19.9146 56.1277 19.9105 56.9879Z" fill="#2F2E41"/>
<path d="M18.4947 61.0522C18.4199 61.2406 18.3337 61.4242 18.2366 61.6022C17.6172 62.7351 16.5732 63.5756 15.3341 63.9388C14.095 64.302 12.7624 64.1582 11.6294 63.539C11.0679 63.2326 10.5723 62.8185 10.1709 62.3205C9.76956 61.8225 9.47023 61.2502 9.29009 60.6365C9.10994 60.0227 9.05251 59.3795 9.12106 58.7436C9.18961 58.1076 9.38281 57.4914 9.68961 56.9301C9.99641 56.3689 10.4108 55.8736 10.9091 55.4725C11.4074 55.0715 11.9798 54.7726 12.5937 54.5928C13.2076 54.4131 13.8509 54.3561 14.4868 54.4251C15.1227 54.4941 15.7388 54.6878 16.2998 54.995C17.3406 55.5641 18.1379 56.4935 18.542 57.6088C18.9462 58.7241 18.9293 59.9485 18.4947 61.0522Z" fill="#A0616A"/>
<path d="M23.4667 50.3983C23.364 50.2861 23.2566 50.1754 23.146 50.068C21.3645 48.3024 19.1203 47.0761 16.6722 46.5304C14.2241 45.9846 11.6716 46.1415 9.30884 46.9832C6.94605 47.8248 4.86912 49.3169 3.31734 51.2874C1.76557 53.258 0.802085 55.6269 0.537914 58.1211C0.273742 60.6154 0.719627 63.1335 1.8242 65.3854C2.92877 67.6373 4.64708 69.5313 6.78115 70.8493C8.91521 72.1672 11.3782 72.8553 13.8863 72.8345C16.3944 72.8136 18.8456 72.0846 20.9575 70.7314C21.7462 70.2253 22.4797 69.6379 23.146 68.979C23.255 68.8716 23.3625 68.7625 23.4667 68.6503C25.793 66.1811 27.0885 62.9167 27.0885 59.5243C27.0885 56.1319 25.793 52.8675 23.4667 50.3983ZM23.146 68.5573C22.4419 69.2869 21.6552 69.932 20.8019 70.4797C20.8004 70.4813 20.7987 70.4813 20.7972 70.4829C18.7585 71.7881 16.3967 72.4998 13.9764 72.5383C11.5561 72.5768 9.17282 71.9406 7.09369 70.7009C7.09212 70.7009 7.09212 70.6993 7.09048 70.6993C5.49588 69.7484 4.12304 68.4675 3.06405 66.9426C2.00505 65.4176 1.28438 63.6838 0.950375 61.8575C0.616367 60.0312 0.676741 58.1546 1.12745 56.3535C1.57816 54.5525 2.40878 52.8686 3.5636 51.4149C4.71843 49.9611 6.17076 48.7711 7.82319 47.9247C9.47562 47.0783 11.2899 46.595 13.1445 46.5072C14.999 46.4194 16.8508 46.7292 18.5758 47.4158C20.3008 48.1024 21.859 49.1499 23.146 50.4881C23.2566 50.6003 23.3625 50.7157 23.4667 50.8328C25.6078 53.2209 26.7919 56.3153 26.7919 59.5227C26.7919 62.7301 25.6078 65.8245 23.4667 68.2126C23.364 68.3297 23.2566 68.4451 23.146 68.5573Z" fill="#3F3D56"/>
<path d="M18.6708 51.5555C18.3485 51.0085 17.8814 50.5612 17.3209 50.263C16.7604 49.9648 16.1284 49.8273 15.4948 49.8657C14.8296 49.9155 14.1968 50.1606 13.5754 50.403L10.4161 51.6353C9.59862 51.9542 8.70329 52.3448 8.34855 53.1474C8.01931 53.8923 8.26495 54.7526 8.51361 55.5281L9.6956 59.2146C9.85757 58.3865 10.0221 57.5502 10.3654 56.7794C10.7088 56.0086 11.2518 55.2979 12.0026 54.9128C12.8232 54.4918 13.7904 54.5005 14.7116 54.5449C16.0163 54.6076 17.4349 54.7736 18.3619 55.6939C18.854 56.2165 19.1876 56.8681 19.324 57.5728C19.4582 58.2738 19.5257 58.986 19.5257 59.6997C20.0608 58.78 20.5114 57.8138 20.8723 56.8129C21.1691 56.0676 21.3382 55.2776 21.3726 54.4761C21.3796 53.6757 21.153 52.85 20.6193 52.2535C20.0856 51.6569 19.2159 51.3349 18.4511 51.571" fill="#2F2E41"/>
<path d="M8.70862 33.9649L8.388 33.9611C8.39182 33.6404 8.40105 33.315 8.41546 32.994L8.7358 33.0084C8.72156 33.3259 8.71242 33.6477 8.70862 33.9649Z" fill="#1E1D5B"/>
<path d="M8.87664 31.1773L8.55786 31.1426C8.62482 30.5297 8.7125 29.9115 8.81848 29.3053L9.13436 29.3606C9.02954 29.96 8.94284 30.5712 8.87664 31.1773ZM9.50869 27.5642L9.19703 27.4887C9.34216 26.8899 9.50881 26.2882 9.69237 25.7002L9.99847 25.7957C9.81696 26.3771 9.65217 26.9722 9.50869 27.5642ZM10.6025 24.0607L10.3033 23.9455C10.5247 23.3702 10.7681 22.7946 11.0264 22.2345L11.3176 22.3688C11.0621 22.9226 10.8215 23.4919 10.6025 24.0607ZM12.1404 20.7269L11.8586 20.5741C12.1521 20.0327 12.4675 19.4934 12.7958 18.9711L13.0673 19.1418C12.7426 19.6583 12.4308 20.1915 12.1404 20.7269ZM14.0939 17.6197L13.834 17.4319C14.1947 16.9324 14.5764 16.438 14.9685 15.9626L15.2159 16.1666C14.8282 16.6368 14.4507 17.1256 14.0939 17.6197ZM16.4283 14.7884L16.1945 14.5691C16.6158 14.12 17.0574 13.6786 17.5069 13.2569L17.7263 13.4908C17.2817 13.9078 16.845 14.3444 16.4283 14.7884ZM19.1042 12.2787L18.9003 12.0313C19.3756 11.6394 19.8697 11.258 20.369 10.8975L20.5567 11.1574C20.063 11.514 19.5743 11.8912 19.1042 12.2787ZM22.0777 10.1317L21.9071 9.86025C22.4286 9.53238 22.9674 9.21743 23.5083 8.92409L23.6612 9.20593C23.1262 9.49606 22.5935 9.80748 22.0777 10.1317ZM25.3006 8.38431L25.1662 8.09308C25.725 7.83529 26.2995 7.59236 26.8739 7.37105L26.9892 7.67026C26.4212 7.88907 25.8531 8.12933 25.3006 8.38431ZM28.7198 7.06706L28.6241 6.76096C29.2119 6.57722 29.8136 6.41032 30.4124 6.26494L30.4881 6.57652C29.8959 6.72033 29.301 6.88535 28.7198 7.06706ZM32.2843 6.20145L32.229 5.88564C32.835 5.7794 33.4531 5.69149 34.0661 5.62432L34.101 5.9431C33.4948 6.00949 32.8836 6.09647 32.2843 6.20145Z" fill="#1E1D5B"/>
<path d="M35.943 5.8011L35.9286 5.48075C36.2498 5.46635 36.5752 5.45711 36.8957 5.45327L36.8995 5.77393C36.5825 5.77769 36.2606 5.78685 35.943 5.8011Z" fill="#1E1D5B"/>
<path d="M9.8929 32.9341L9.66379 32.7095L8.55847 33.84L7.51151 32.655L7.27118 32.8678L8.54661 34.3107L9.8929 32.9341Z" fill="#1E1D5B"/>
<path d="M35.8689 6.95818L35.6442 6.72907L36.7747 5.62375L35.5897 4.57679L35.8025 4.33646L37.2455 5.61189L35.8689 6.95818Z" fill="#1E1D5B"/>
<path d="M83.8416 8.9716C83.5593 8.82307 83.275 8.6771 82.9886 8.5337L83.1321 8.24699C83.4205 8.39128 83.7068 8.53822 83.9909 8.6878L83.8416 8.9716Z" fill="#1E1D5B"/>
<path d="M105.631 68.1539L105.334 68.0323C105.576 67.4436 105.808 66.8431 106.024 66.2474L106.325 66.3568C106.108 66.9566 105.874 67.5613 105.631 68.1539ZM106.946 64.5327L106.64 64.4357C106.832 63.8302 107.015 63.2127 107.182 62.6003L107.491 62.6847C107.323 63.3013 107.139 63.9231 106.946 64.5327ZM107.96 60.8157L107.647 60.7441C107.789 60.1245 107.92 59.494 108.036 58.8703L108.351 58.9289C108.234 59.5569 108.103 60.1917 107.96 60.8157ZM108.664 57.0275L108.347 56.982C108.437 56.3532 108.516 55.714 108.58 55.0823L108.899 55.1148C108.834 55.7509 108.755 56.3944 108.664 57.0275ZM109.055 53.1939L108.734 53.1746C108.773 52.5409 108.798 51.8974 108.81 51.2621L109.131 51.2682C109.119 51.9079 109.093 52.5558 109.055 53.1939ZM109.128 49.341L108.807 49.3481C108.801 49.0692 108.792 48.7905 108.781 48.5121C108.767 48.1551 108.748 47.7929 108.726 47.4355L109.046 47.4154C109.069 47.7751 109.087 48.1398 109.102 48.4993C109.113 48.7796 109.122 49.0601 109.128 49.341ZM108.566 45.529C108.5 44.8973 108.42 44.2585 108.328 43.6304L108.646 43.5841C108.738 44.2165 108.819 44.8596 108.885 45.4958L108.566 45.529ZM108.014 41.7428C107.896 41.119 107.765 40.4887 107.622 39.8695L107.934 39.7974C108.078 40.4209 108.211 41.0555 108.329 41.6836L108.014 41.7428ZM107.154 38.0135C106.986 37.4003 106.804 36.7828 106.611 36.1778L106.917 36.0807C107.111 36.6898 107.295 37.3116 107.464 37.9288L107.154 38.0135ZM105.994 34.3658C105.777 33.7686 105.545 33.1678 105.304 32.5801L105.601 32.4583C105.843 33.0502 106.077 33.6551 106.296 34.2563L105.994 34.3658ZM104.541 30.8238C104.276 30.246 103.996 29.6661 103.708 29.0998L103.994 28.9544C104.284 29.5245 104.566 30.1084 104.833 30.69L104.541 30.8238ZM102.805 27.4112C102.494 26.8572 102.167 26.302 101.833 25.7609L102.106 25.5927C102.442 26.1374 102.771 26.6965 103.084 27.2543L102.805 27.4112ZM100.795 24.1516C100.439 23.6245 100.068 23.0978 99.6912 22.586L99.9494 22.396C100.329 22.9112 100.703 23.4416 101.061 23.9724L100.795 24.1516ZM98.5241 21.0669C98.1262 20.5704 97.7128 20.0759 97.2954 19.597L97.5371 19.3863C97.9574 19.8685 98.3736 20.3664 98.7743 20.8663L98.5241 21.0669ZM96.0069 18.1789C95.5694 17.7167 95.1165 17.2579 94.6608 16.8149L94.8844 16.585C95.3431 17.031 95.7991 17.4931 96.2397 17.9583L96.0069 18.1789ZM93.2594 15.5074C92.7853 15.0831 92.2959 14.663 91.8049 14.2588L92.0087 14.0112C92.5031 14.4182 92.9959 14.8413 93.4732 15.2685L93.2594 15.5074ZM90.2997 13.0711C89.7941 12.6886 89.2725 12.3108 88.7497 11.9481L88.9324 11.6846C89.4589 12.0498 89.984 12.4302 90.4932 12.8153L90.2997 13.0711ZM87.1548 10.8898C86.6197 10.5501 86.069 10.2162 85.5181 9.89724L85.6787 9.61972C86.2334 9.94084 86.7879 10.2771 87.3266 10.6191L87.1548 10.8898Z" fill="#1E1D5B"/>
<path d="M104.453 70.7975L104.164 70.6582C104.303 70.3697 104.439 70.0805 104.572 69.7905L104.863 69.9239C104.73 70.2159 104.593 70.5071 104.453 70.7975Z" fill="#1E1D5B"/>
<path d="M83.3902 10.0516L83.6927 9.94498L83.1657 8.45439L84.6911 8.03753L84.6061 7.72809L82.7485 8.23602L83.3902 10.0516Z" fill="#1E1D5B"/>
<path d="M103.555 69.211L103.859 69.1106L104.353 70.6128L105.815 70.0112L105.937 70.3081L104.156 71.0405L103.555 69.211Z" fill="#1E1D5B"/>
</g>
<defs>
<clipPath id="clip0_3_70">
<rect width="108.681" height="100" fill="white" transform="translate(0.449585)"/>
</clipPath>
</defs>
</svg>
